<svg width="140" height="91" viewBox="0 0 140 91" fill="none" xmlns="http://www.w3.org/2000/svg">
<g clip-path="url(#clip0_1232_60450)">
<path fill-rule="evenodd" clip-rule="evenodd" d="M10 12C9.40666 12 8.82664 11.8241 8.33329 11.4944C7.83994 11.1648 7.45543 10.6962 7.22836 10.1481C7.0013 9.59987 6.94189 8.99667 7.05765 8.41473C7.1734 7.83279 7.45912 7.29824 7.87868 6.87868C8.29824 6.45912 8.83279 6.1734 9.41473 6.05765C9.99667 5.94189 10.5999 6.0013 11.1481 6.22836C11.6962 6.45543 12.1648 6.83994 12.4944 7.33329C12.8241 7.82664 13 8.40666 13 9C13 9.79565 12.6839 10.5587 12.1213 11.1213C11.5587 11.6839 10.7957 12 10 12ZM20 12C19.4067 12 18.8266 11.8241 18.3333 11.4944C17.8399 11.1648 17.4554 10.6962 17.2284 10.1481C17.0013 9.59987 16.9419 8.99667 17.0576 8.41473C17.1734 7.83279 17.4591 7.29824 17.8787 6.87868C18.2982 6.45912 18.8328 6.1734 19.4147 6.05765C19.9967 5.94189 20.5999 6.0013 21.1481 6.22836C21.6962 6.45543 22.1648 6.83994 22.4944 7.33329C22.8241 7.82664 23 8.40666 23 9C23 9.79565 22.6839 10.5587 22.1213 11.1213C21.5587 11.6839 20.7957 12 20 12ZM30 12C29.4067 12 28.8266 11.8241 28.3333 11.4944C27.8399 11.1648 27.4554 10.6962 27.2284 10.1481C27.0013 9.59987 26.9419 8.99667 27.0576 8.41473C27.1734 7.83279 27.4591 7.29824 27.8787 6.87868C28.2982 6.45912 28.8328 6.1734 29.4147 6.05765C29.9967 5.94189 30.5999 6.0013 31.1481 6.22836C31.6962 6.45543 32.1648 6.83994 32.4944 7.33329C32.8241 7.82664 33 8.40666 33 9C33 9.79565 32.6839 10.5587 32.1213 11.1213C31.5587 11.6839 30.7957 12 30 12Z" fill="#AAB7B8"/>
<path d="M40 31V40H49V31H40ZM40 48V57H49V48H40ZM40 67V76H49V67H40Z" stroke="#AAB7B8" stroke-width="2"/>
<path d="M123 22V3C123 2.46957 122.789 1.96086 122.414 1.58579C122.039 1.21071 121.53 1 121 1H3C2.46957 1 1.96086 1.21071 1.58579 1.58579C1.21071 1.96086 1 2.46957 1 3V88C1 88.5304 1.21071 89.0391 1.58579 89.4142C1.96086 89.7893 2.46957 90 3 90H121C121.53 90 122.039 89.7893 122.414 89.4142C122.789 89.0391 123 88.5304 123 88V69.89" stroke="#AAB7B8" stroke-width="2"/>
<path d="M25.52 17.04H23.46V89.74H25.52V17.04Z" fill="#AAB7B8"/>
<path d="M123.25 15.44H1.52002V17.5H123.25V15.44Z" fill="#AAB7B8"/>
<path d="M100.32 34.51H55.8101V36.5H100.32V34.51Z" fill="#AAB7B8"/>
<path d="M100.37 53.5H55.8601V55.49H100.37V53.5Z" fill="#AAB7B8"/>
<path d="M103.88 69.49H55.8701V71.48H103.88V69.49Z" fill="#AAB7B8"/>
<path fill-rule="evenodd" clip-rule="evenodd" d="M113.828 40.3907C113.828 35.2738 118.125 31.0651 123.484 31.0651C128.842 31.0651 133.139 35.2737 133.139 40.3907V41.3907H135.139V40.3907C135.139 34.1103 129.886 29.0651 123.484 29.0651C117.081 29.0651 111.828 34.1102 111.828 40.3907V41.3907H113.828V40.3907ZM110.697 41.4559H109.697V42.4559V58.9769V59.9769H110.697H136.27H137.27V58.9769V42.4559V41.4559H136.27H110.697ZM111.697 57.9769V43.4559H135.27V57.9769H111.697Z" fill="#EC7211"/>
</g>
<defs>
<clipPath id="clip0_1232_60450">
<rect width="140" height="91" fill="white"/>
</clipPath>
</defs>
</svg>
